<mxfile host="app.diagrams.net" modified="2023-11-28T20:36:53.439Z" agent="Mozilla/5.0 (Macintosh; Intel Mac OS X 10_15_7) AppleWebKit/537.36 (KHTML, like Gecko) Chrome/119.0.0.0 Safari/537.36" etag="xCLQ_EUvUXJsqdutcMul" version="22.1.4" type="github">
  <diagram id="FSpKVZrnyX2kfzoy-KNv" name="Page-1">
    <mxGraphModel dx="1011" dy="1763" grid="1" gridSize="10" guides="1" tooltips="1" connect="1" arrows="1" fold="1" page="1" pageScale="1" pageWidth="850" pageHeight="1100" math="0" shadow="0">
      <root>
        <mxCell id="0" />
        <mxCell id="1" parent="0" />
        <mxCell id="3oBcGqyqrbjpWQ7rkoVl-167" value="" style="ellipse;whiteSpace=wrap;html=1;strokeWidth=3;fillColor=#f8cecc;strokeColor=#b85450;" parent="1" vertex="1">
          <mxGeometry x="470" y="-40" width="80" height="80" as="geometry" />
        </mxCell>
        <mxCell id="3oBcGqyqrbjpWQ7rkoVl-107" value="" style="ellipse;whiteSpace=wrap;html=1;strokeWidth=3;fillColor=#f8cecc;strokeColor=#b85450;" parent="1" vertex="1">
          <mxGeometry x="100" y="10" width="80" height="80" as="geometry" />
        </mxCell>
        <mxCell id="3oBcGqyqrbjpWQ7rkoVl-71" style="edgeStyle=elbowEdgeStyle;rounded=0;orthogonalLoop=1;jettySize=auto;html=1;entryX=0;entryY=0.5;entryDx=0;entryDy=0;strokeColor=#330000;endArrow=none;endFill=0;strokeWidth=4;" parent="1" source="3oBcGqyqrbjpWQ7rkoVl-2" target="3oBcGqyqrbjpWQ7rkoVl-25" edge="1">
          <mxGeometry relative="1" as="geometry">
            <mxPoint x="620" y="680" as="sourcePoint" />
            <Array as="points">
              <mxPoint x="560" y="550" />
              <mxPoint x="560" y="510" />
              <mxPoint x="570" y="550" />
              <mxPoint x="570" y="610" />
              <mxPoint x="590" y="450" />
              <mxPoint x="660" y="640" />
              <mxPoint x="670" y="630" />
              <mxPoint x="710" y="600" />
              <mxPoint x="730" y="-130" />
            </Array>
          </mxGeometry>
        </mxCell>
        <mxCell id="3oBcGqyqrbjpWQ7rkoVl-27" value="" style="ellipse;whiteSpace=wrap;html=1;strokeWidth=3;fillColor=#f8cecc;strokeColor=#b85450;" parent="1" vertex="1">
          <mxGeometry x="400" y="230" width="80" height="80" as="geometry" />
        </mxCell>
        <mxCell id="3oBcGqyqrbjpWQ7rkoVl-37" value="" style="group;rotation=-180;" parent="1" vertex="1" connectable="0">
          <mxGeometry x="410" y="250" width="60" height="50" as="geometry" />
        </mxCell>
        <mxCell id="3oBcGqyqrbjpWQ7rkoVl-35" value="" style="group;rotation=-180;" parent="3oBcGqyqrbjpWQ7rkoVl-37" vertex="1" connectable="0">
          <mxGeometry width="60" height="50" as="geometry" />
        </mxCell>
        <mxCell id="3oBcGqyqrbjpWQ7rkoVl-28" value="" style="ellipse;whiteSpace=wrap;html=1;rotation=-180;" parent="3oBcGqyqrbjpWQ7rkoVl-35" vertex="1">
          <mxGeometry x="20" y="30" width="20" height="20" as="geometry" />
        </mxCell>
        <mxCell id="3oBcGqyqrbjpWQ7rkoVl-29" value="" style="ellipse;whiteSpace=wrap;html=1;rotation=-180;" parent="3oBcGqyqrbjpWQ7rkoVl-35" vertex="1">
          <mxGeometry width="20" height="20" as="geometry" />
        </mxCell>
        <mxCell id="3oBcGqyqrbjpWQ7rkoVl-30" value="" style="ellipse;whiteSpace=wrap;html=1;rotation=-180;" parent="3oBcGqyqrbjpWQ7rkoVl-35" vertex="1">
          <mxGeometry x="40" width="20" height="20" as="geometry" />
        </mxCell>
        <mxCell id="3oBcGqyqrbjpWQ7rkoVl-65" style="edgeStyle=orthogonalEdgeStyle;rounded=0;orthogonalLoop=1;jettySize=auto;html=1;exitX=1;exitY=0.5;exitDx=0;exitDy=0;endArrow=none;endFill=0;entryX=0;entryY=0.5;entryDx=0;entryDy=0;strokeWidth=2;" parent="1" source="3oBcGqyqrbjpWQ7rkoVl-50" target="3oBcGqyqrbjpWQ7rkoVl-122" edge="1">
          <mxGeometry relative="1" as="geometry">
            <mxPoint x="320" y="650" as="targetPoint" />
            <Array as="points">
              <mxPoint x="220" y="450" />
              <mxPoint x="220" y="575" />
            </Array>
          </mxGeometry>
        </mxCell>
        <mxCell id="3oBcGqyqrbjpWQ7rkoVl-66" style="edgeStyle=orthogonalEdgeStyle;rounded=0;orthogonalLoop=1;jettySize=auto;html=1;endArrow=none;endFill=0;strokeWidth=2;entryX=0;entryY=0.5;entryDx=0;entryDy=0;" parent="1" target="3oBcGqyqrbjpWQ7rkoVl-122" edge="1">
          <mxGeometry relative="1" as="geometry">
            <mxPoint x="240" y="580" as="targetPoint" />
            <mxPoint x="175" y="580" as="sourcePoint" />
            <Array as="points">
              <mxPoint x="220" y="580" />
              <mxPoint x="220" y="575" />
            </Array>
          </mxGeometry>
        </mxCell>
        <mxCell id="3oBcGqyqrbjpWQ7rkoVl-68" style="edgeStyle=orthogonalEdgeStyle;rounded=0;orthogonalLoop=1;jettySize=auto;html=1;strokeColor=#FF0000;endArrow=none;endFill=0;entryX=0.5;entryY=1;entryDx=0;entryDy=0;elbow=vertical;strokeWidth=2;exitX=1;exitY=0.5;exitDx=0;exitDy=0;" parent="1" source="3oBcGqyqrbjpWQ7rkoVl-60" target="3oBcGqyqrbjpWQ7rkoVl-139" edge="1">
          <mxGeometry relative="1" as="geometry">
            <mxPoint x="200" y="490" as="sourcePoint" />
            <mxPoint x="140" y="430" as="targetPoint" />
            <Array as="points">
              <mxPoint x="200" y="480" />
              <mxPoint x="200" y="330" />
              <mxPoint x="140" y="330" />
            </Array>
          </mxGeometry>
        </mxCell>
        <mxCell id="3oBcGqyqrbjpWQ7rkoVl-86" style="edgeStyle=orthogonalEdgeStyle;rounded=0;orthogonalLoop=1;jettySize=auto;html=1;endArrow=none;endFill=0;strokeColor=#FF0000;entryX=0.5;entryY=1;entryDx=0;entryDy=0;strokeWidth=2;" parent="1" source="3oBcGqyqrbjpWQ7rkoVl-72" target="3oBcGqyqrbjpWQ7rkoVl-29" edge="1">
          <mxGeometry relative="1" as="geometry">
            <mxPoint x="490" y="10" as="sourcePoint" />
            <mxPoint x="390" y="200" as="targetPoint" />
            <Array as="points">
              <mxPoint x="420" y="160" />
            </Array>
          </mxGeometry>
        </mxCell>
        <mxCell id="3oBcGqyqrbjpWQ7rkoVl-96" value="S" style="text;html=1;resizable=0;points=[];align=center;verticalAlign=middle;labelBackgroundColor=#ffffff;" parent="3oBcGqyqrbjpWQ7rkoVl-86" vertex="1" connectable="0">
          <mxGeometry x="-0.6333" y="-1" relative="1" as="geometry">
            <mxPoint as="offset" />
          </mxGeometry>
        </mxCell>
        <mxCell id="3oBcGqyqrbjpWQ7rkoVl-97" style="edgeStyle=orthogonalEdgeStyle;rounded=0;orthogonalLoop=1;jettySize=auto;html=1;endArrow=none;endFill=0;strokeColor=#FF0000;entryX=0.5;entryY=0;entryDx=0;entryDy=0;strokeWidth=2;" parent="1" source="3oBcGqyqrbjpWQ7rkoVl-72" target="3oBcGqyqrbjpWQ7rkoVl-138" edge="1">
          <mxGeometry relative="1" as="geometry">
            <mxPoint x="260" y="240" as="targetPoint" />
            <mxPoint x="170" y="250" as="sourcePoint" />
            <Array as="points">
              <mxPoint x="220" y="160" />
            </Array>
          </mxGeometry>
        </mxCell>
        <mxCell id="3oBcGqyqrbjpWQ7rkoVl-117" value="R" style="text;html=1;resizable=0;points=[];align=center;verticalAlign=middle;labelBackgroundColor=#ffffff;" parent="3oBcGqyqrbjpWQ7rkoVl-97" vertex="1" connectable="0">
          <mxGeometry x="0.2377" y="-4" relative="1" as="geometry">
            <mxPoint as="offset" />
          </mxGeometry>
        </mxCell>
        <mxCell id="3oBcGqyqrbjpWQ7rkoVl-197" style="edgeStyle=orthogonalEdgeStyle;rounded=0;orthogonalLoop=1;jettySize=auto;html=1;exitX=0.75;exitY=1;exitDx=0;exitDy=0;entryX=0;entryY=0.25;entryDx=0;entryDy=0;endArrow=none;endFill=0;strokeColor=#000000;strokeWidth=1;fontColor=#4D4D4D;" parent="1" source="3oBcGqyqrbjpWQ7rkoVl-72" target="3oBcGqyqrbjpWQ7rkoVl-2" edge="1">
          <mxGeometry relative="1" as="geometry">
            <Array as="points">
              <mxPoint x="340" y="220" />
              <mxPoint x="380" y="220" />
              <mxPoint x="380" y="551" />
            </Array>
          </mxGeometry>
        </mxCell>
        <mxCell id="3oBcGqyqrbjpWQ7rkoVl-72" value="ACR" style="whiteSpace=wrap;html=1;aspect=fixed;strokeWidth=3;fillColor=#f5f5f5;strokeColor=#666666;fontColor=#333333;rounded=1;" parent="1" vertex="1">
          <mxGeometry x="280" y="120" width="80" height="80" as="geometry" />
        </mxCell>
        <mxCell id="3oBcGqyqrbjpWQ7rkoVl-174" style="edgeStyle=orthogonalEdgeStyle;rounded=0;orthogonalLoop=1;jettySize=auto;html=1;exitX=1;exitY=0.75;exitDx=0;exitDy=0;entryX=1;entryY=0.5;entryDx=0;entryDy=0;endArrow=none;endFill=0;strokeColor=#FF0000;strokeWidth=2;" parent="1" source="3oBcGqyqrbjpWQ7rkoVl-78" target="3oBcGqyqrbjpWQ7rkoVl-170" edge="1">
          <mxGeometry relative="1" as="geometry" />
        </mxCell>
        <mxCell id="3oBcGqyqrbjpWQ7rkoVl-175" style="edgeStyle=orthogonalEdgeStyle;rounded=0;orthogonalLoop=1;jettySize=auto;html=1;exitX=0;exitY=0.25;exitDx=0;exitDy=0;endArrow=none;endFill=0;strokeColor=#0D0D0D;strokeWidth=2;" parent="1" source="3oBcGqyqrbjpWQ7rkoVl-78" target="3oBcGqyqrbjpWQ7rkoVl-2" edge="1">
          <mxGeometry relative="1" as="geometry">
            <mxPoint x="640" y="730" as="targetPoint" />
            <Array as="points">
              <mxPoint x="250" y="-40" />
              <mxPoint x="250" y="-240" />
              <mxPoint x="590" y="-240" />
              <mxPoint x="590" y="580" />
            </Array>
          </mxGeometry>
        </mxCell>
        <mxCell id="3oBcGqyqrbjpWQ7rkoVl-78" value="VICTRON&lt;br&gt;SOLAR&lt;br&gt;CHARGER&lt;br&gt;100v / 30A" style="whiteSpace=wrap;html=1;aspect=fixed;fillColor=#f5f5f5;strokeColor=#666666;fontColor=#333333;strokeWidth=3;rounded=1;" parent="1" vertex="1">
          <mxGeometry x="280" y="-60" width="80" height="80" as="geometry" />
        </mxCell>
        <mxCell id="3oBcGqyqrbjpWQ7rkoVl-144" style="edgeStyle=orthogonalEdgeStyle;rounded=0;orthogonalLoop=1;jettySize=auto;html=1;exitX=0;exitY=0.75;exitDx=0;exitDy=0;entryX=0.5;entryY=0;entryDx=0;entryDy=0;endArrow=none;endFill=0;strokeColor=#FF0000;strokeWidth=2;" parent="1" source="3oBcGqyqrbjpWQ7rkoVl-79" target="3oBcGqyqrbjpWQ7rkoVl-136" edge="1">
          <mxGeometry relative="1" as="geometry">
            <Array as="points">
              <mxPoint x="180" y="90" />
            </Array>
          </mxGeometry>
        </mxCell>
        <mxCell id="3oBcGqyqrbjpWQ7rkoVl-192" value="B" style="text;html=1;resizable=0;points=[];align=center;verticalAlign=middle;labelBackgroundColor=#ffffff;fontColor=#4D4D4D;" parent="3oBcGqyqrbjpWQ7rkoVl-144" vertex="1" connectable="0">
          <mxGeometry x="-0.8" y="-3" relative="1" as="geometry">
            <mxPoint as="offset" />
          </mxGeometry>
        </mxCell>
        <mxCell id="3oBcGqyqrbjpWQ7rkoVl-154" style="edgeStyle=orthogonalEdgeStyle;rounded=0;orthogonalLoop=1;jettySize=auto;html=1;exitX=0;exitY=0.25;exitDx=0;exitDy=0;endArrow=none;endFill=0;strokeColor=#000000;strokeWidth=2;" parent="1" source="3oBcGqyqrbjpWQ7rkoVl-79" target="3oBcGqyqrbjpWQ7rkoVl-2" edge="1">
          <mxGeometry relative="1" as="geometry">
            <mxPoint x="600" y="729" as="targetPoint" />
            <Array as="points">
              <mxPoint x="240" y="50" />
              <mxPoint x="240" y="-250" />
              <mxPoint x="600" y="-250" />
              <mxPoint x="600" y="590" />
            </Array>
          </mxGeometry>
        </mxCell>
        <mxCell id="3oBcGqyqrbjpWQ7rkoVl-191" value="A" style="text;html=1;resizable=0;points=[];align=center;verticalAlign=middle;labelBackgroundColor=#ffffff;fontColor=#4D4D4D;" parent="3oBcGqyqrbjpWQ7rkoVl-154" vertex="1" connectable="0">
          <mxGeometry x="-0.8841" y="1" relative="1" as="geometry">
            <mxPoint x="1" y="53" as="offset" />
          </mxGeometry>
        </mxCell>
        <mxCell id="3oBcGqyqrbjpWQ7rkoVl-195" value="A" style="text;html=1;resizable=0;points=[];align=center;verticalAlign=middle;labelBackgroundColor=#ffffff;fontColor=#4D4D4D;" parent="3oBcGqyqrbjpWQ7rkoVl-154" vertex="1" connectable="0">
          <mxGeometry x="-0.3825" y="1" relative="1" as="geometry">
            <mxPoint as="offset" />
          </mxGeometry>
        </mxCell>
        <mxCell id="3oBcGqyqrbjpWQ7rkoVl-155" style="edgeStyle=orthogonalEdgeStyle;rounded=0;orthogonalLoop=1;jettySize=auto;html=1;exitX=1;exitY=0.25;exitDx=0;exitDy=0;endArrow=none;endFill=0;strokeColor=#000000;strokeWidth=2;" parent="1" source="3oBcGqyqrbjpWQ7rkoVl-79" target="3oBcGqyqrbjpWQ7rkoVl-2" edge="1">
          <mxGeometry relative="1" as="geometry">
            <mxPoint x="620" y="690" as="targetPoint" />
            <Array as="points">
              <mxPoint x="570" y="50" />
              <mxPoint x="570" y="560" />
            </Array>
          </mxGeometry>
        </mxCell>
        <mxCell id="3oBcGqyqrbjpWQ7rkoVl-193" value="D" style="text;html=1;resizable=0;points=[];align=center;verticalAlign=middle;labelBackgroundColor=#ffffff;fontColor=#4D4D4D;" parent="3oBcGqyqrbjpWQ7rkoVl-155" vertex="1" connectable="0">
          <mxGeometry x="-0.7786" relative="1" as="geometry">
            <mxPoint as="offset" />
          </mxGeometry>
        </mxCell>
        <mxCell id="3oBcGqyqrbjpWQ7rkoVl-196" value="D" style="text;html=1;resizable=0;points=[];align=center;verticalAlign=middle;labelBackgroundColor=#ffffff;fontColor=#4D4D4D;" parent="3oBcGqyqrbjpWQ7rkoVl-155" vertex="1" connectable="0">
          <mxGeometry x="0.0053" y="-2" relative="1" as="geometry">
            <mxPoint as="offset" />
          </mxGeometry>
        </mxCell>
        <mxCell id="3oBcGqyqrbjpWQ7rkoVl-79" value="RENOGY&lt;br&gt;B2B 40A" style="rounded=1;whiteSpace=wrap;html=1;strokeWidth=3;fillColor=#f5f5f5;strokeColor=#666666;fontColor=#333333;" parent="1" vertex="1">
          <mxGeometry x="260" y="30" width="120" height="80" as="geometry" />
        </mxCell>
        <mxCell id="3oBcGqyqrbjpWQ7rkoVl-90" style="edgeStyle=orthogonalEdgeStyle;rounded=0;orthogonalLoop=1;jettySize=auto;html=1;exitX=0;exitY=0.5;exitDx=0;exitDy=0;entryX=1;entryY=0.75;entryDx=0;entryDy=0;endArrow=none;endFill=0;strokeColor=#FF0000;strokeWidth=2;" parent="1" source="3oBcGqyqrbjpWQ7rkoVl-98" target="3oBcGqyqrbjpWQ7rkoVl-79" edge="1">
          <mxGeometry relative="1" as="geometry" />
        </mxCell>
        <mxCell id="3oBcGqyqrbjpWQ7rkoVl-120" value="G" style="text;html=1;resizable=0;points=[];align=center;verticalAlign=middle;labelBackgroundColor=#ffffff;" parent="3oBcGqyqrbjpWQ7rkoVl-90" vertex="1" connectable="0">
          <mxGeometry x="0.3917" y="2" relative="1" as="geometry">
            <mxPoint x="6" y="-2" as="offset" />
          </mxGeometry>
        </mxCell>
        <mxCell id="3oBcGqyqrbjpWQ7rkoVl-149" style="edgeStyle=orthogonalEdgeStyle;rounded=0;orthogonalLoop=1;jettySize=auto;html=1;exitX=0.25;exitY=1;exitDx=0;exitDy=0;entryX=1;entryY=0.25;entryDx=0;entryDy=0;endArrow=none;endFill=0;strokeColor=#000000;strokeWidth=2;" parent="1" source="3oBcGqyqrbjpWQ7rkoVl-92" target="3oBcGqyqrbjpWQ7rkoVl-78" edge="1">
          <mxGeometry relative="1" as="geometry" />
        </mxCell>
        <mxCell id="3oBcGqyqrbjpWQ7rkoVl-92" value="160W PV&lt;br&gt;160W PV&lt;br&gt;(48v max)" style="rounded=0;whiteSpace=wrap;html=1;strokeColor=#3333FF;strokeWidth=3;" parent="1" vertex="1">
          <mxGeometry x="430" y="-210" width="120" height="100" as="geometry" />
        </mxCell>
        <mxCell id="3oBcGqyqrbjpWQ7rkoVl-150" style="edgeStyle=orthogonalEdgeStyle;rounded=0;orthogonalLoop=1;jettySize=auto;html=1;endArrow=none;endFill=0;strokeColor=#FF0000;exitX=0.5;exitY=1;exitDx=0;exitDy=0;strokeWidth=2;entryX=0.5;entryY=1;entryDx=0;entryDy=0;" parent="1" source="3oBcGqyqrbjpWQ7rkoVl-92" target="3oBcGqyqrbjpWQ7rkoVl-171" edge="1">
          <mxGeometry relative="1" as="geometry">
            <mxPoint x="620" y="-170" as="sourcePoint" />
            <mxPoint x="515" y="-40" as="targetPoint" />
          </mxGeometry>
        </mxCell>
        <mxCell id="3oBcGqyqrbjpWQ7rkoVl-95" value="T" style="edgeStyle=orthogonalEdgeStyle;rounded=0;orthogonalLoop=1;jettySize=auto;html=1;exitX=0.5;exitY=0;exitDx=0;exitDy=0;endArrow=none;endFill=0;strokeColor=#FF0000;entryX=0.5;entryY=0;entryDx=0;entryDy=0;strokeWidth=2;" parent="1" source="3oBcGqyqrbjpWQ7rkoVl-28" target="3oBcGqyqrbjpWQ7rkoVl-24" edge="1">
          <mxGeometry relative="1" as="geometry">
            <mxPoint x="350" y="180" as="targetPoint" />
            <Array as="points" />
          </mxGeometry>
        </mxCell>
        <mxCell id="3oBcGqyqrbjpWQ7rkoVl-98" value="50&lt;br&gt;A" style="whiteSpace=wrap;html=1;aspect=fixed;" parent="1" vertex="1">
          <mxGeometry x="410" y="70" width="40" height="40" as="geometry" />
        </mxCell>
        <mxCell id="3oBcGqyqrbjpWQ7rkoVl-116" style="edgeStyle=orthogonalEdgeStyle;rounded=0;orthogonalLoop=1;jettySize=auto;html=1;entryX=0.5;entryY=1;entryDx=0;entryDy=0;endArrow=none;endFill=0;strokeColor=#FF0000;exitX=1;exitY=0.5;exitDx=0;exitDy=0;strokeWidth=2;" parent="1" source="3oBcGqyqrbjpWQ7rkoVl-98" target="3oBcGqyqrbjpWQ7rkoVl-30" edge="1">
          <mxGeometry relative="1" as="geometry">
            <mxPoint x="370" y="90" as="sourcePoint" />
            <Array as="points">
              <mxPoint x="460" y="90" />
            </Array>
          </mxGeometry>
        </mxCell>
        <mxCell id="3oBcGqyqrbjpWQ7rkoVl-119" value="E" style="text;html=1;resizable=0;points=[];align=center;verticalAlign=middle;labelBackgroundColor=#ffffff;" parent="3oBcGqyqrbjpWQ7rkoVl-116" vertex="1" connectable="0">
          <mxGeometry x="-0.52" y="2" relative="1" as="geometry">
            <mxPoint x="-2" y="37" as="offset" />
          </mxGeometry>
        </mxCell>
        <mxCell id="3oBcGqyqrbjpWQ7rkoVl-121" value="" style="rounded=0;whiteSpace=wrap;html=1;strokeWidth=1;fillColor=#000000;strokeColor=#000000;" parent="1" vertex="1">
          <mxGeometry x="250" y="585" width="120" height="10" as="geometry" />
        </mxCell>
        <mxCell id="3oBcGqyqrbjpWQ7rkoVl-122" value="" style="rounded=0;whiteSpace=wrap;html=1;" parent="1" vertex="1">
          <mxGeometry x="250" y="565" width="40" height="20" as="geometry" />
        </mxCell>
        <mxCell id="3oBcGqyqrbjpWQ7rkoVl-131" style="edgeStyle=orthogonalEdgeStyle;rounded=0;orthogonalLoop=1;jettySize=auto;html=1;exitX=1;exitY=0.5;exitDx=0;exitDy=0;endArrow=none;endFill=0;strokeColor=#000000;strokeWidth=2;" parent="1" source="3oBcGqyqrbjpWQ7rkoVl-123" target="3oBcGqyqrbjpWQ7rkoVl-2" edge="1">
          <mxGeometry relative="1" as="geometry">
            <Array as="points">
              <mxPoint x="400" y="575" />
              <mxPoint x="400" y="575" />
            </Array>
          </mxGeometry>
        </mxCell>
        <mxCell id="3oBcGqyqrbjpWQ7rkoVl-132" value="W" style="text;html=1;resizable=0;points=[];align=center;verticalAlign=middle;labelBackgroundColor=#ffffff;" parent="3oBcGqyqrbjpWQ7rkoVl-131" vertex="1" connectable="0">
          <mxGeometry x="-0.15" y="1" relative="1" as="geometry">
            <mxPoint as="offset" />
          </mxGeometry>
        </mxCell>
        <mxCell id="3oBcGqyqrbjpWQ7rkoVl-123" value="" style="rounded=0;whiteSpace=wrap;html=1;" parent="1" vertex="1">
          <mxGeometry x="330" y="565" width="40" height="20" as="geometry" />
        </mxCell>
        <mxCell id="3oBcGqyqrbjpWQ7rkoVl-135" style="edgeStyle=orthogonalEdgeStyle;rounded=0;orthogonalLoop=1;jettySize=auto;html=1;exitX=0.5;exitY=1;exitDx=0;exitDy=0;endArrow=none;endFill=0;strokeColor=#000000;strokeWidth=2;entryX=1.009;entryY=0.15;entryDx=0;entryDy=0;entryPerimeter=0;" parent="1" source="3oBcGqyqrbjpWQ7rkoVl-134" target="3oBcGqyqrbjpWQ7rkoVl-2" edge="1">
          <mxGeometry relative="1" as="geometry">
            <mxPoint x="600" y="620" as="targetPoint" />
            <Array as="points">
              <mxPoint x="320" y="520" />
              <mxPoint x="540" y="520" />
              <mxPoint x="540" y="540" />
              <mxPoint x="520" y="540" />
            </Array>
          </mxGeometry>
        </mxCell>
        <mxCell id="3oBcGqyqrbjpWQ7rkoVl-134" value="12V Loads&lt;br&gt;&lt;br&gt;FAN&lt;br&gt;FRIDGE&lt;br&gt;OUTLETS" style="rounded=1;whiteSpace=wrap;html=1;fillColor=#B3B3B3;strokeColor=#666666;fontColor=#333333;strokeWidth=3;" parent="1" vertex="1">
          <mxGeometry x="280" y="320" width="80" height="120" as="geometry" />
        </mxCell>
        <mxCell id="3oBcGqyqrbjpWQ7rkoVl-136" value="50&lt;br&gt;A" style="whiteSpace=wrap;html=1;aspect=fixed;" parent="1" vertex="1">
          <mxGeometry x="160" y="200" width="40" height="40" as="geometry" />
        </mxCell>
        <mxCell id="3oBcGqyqrbjpWQ7rkoVl-142" style="edgeStyle=orthogonalEdgeStyle;rounded=0;orthogonalLoop=1;jettySize=auto;html=1;entryX=0.5;entryY=0;entryDx=0;entryDy=0;endArrow=none;endFill=0;strokeColor=#FF0000;strokeWidth=2;" parent="1" source="3oBcGqyqrbjpWQ7rkoVl-137" target="3oBcGqyqrbjpWQ7rkoVl-134" edge="1">
          <mxGeometry relative="1" as="geometry" />
        </mxCell>
        <mxCell id="3oBcGqyqrbjpWQ7rkoVl-137" value="50&lt;br&gt;A" style="whiteSpace=wrap;html=1;aspect=fixed;" parent="1" vertex="1">
          <mxGeometry x="200" y="280" width="40" height="40" as="geometry" />
        </mxCell>
        <mxCell id="3oBcGqyqrbjpWQ7rkoVl-138" value="100&lt;br&gt;A" style="whiteSpace=wrap;html=1;aspect=fixed;" parent="1" vertex="1">
          <mxGeometry x="200" y="200" width="40" height="40" as="geometry" />
        </mxCell>
        <mxCell id="3oBcGqyqrbjpWQ7rkoVl-139" value="100&lt;br&gt;A" style="whiteSpace=wrap;html=1;aspect=fixed;" parent="1" vertex="1">
          <mxGeometry x="120" y="280" width="40" height="40" as="geometry" />
        </mxCell>
        <mxCell id="3oBcGqyqrbjpWQ7rkoVl-140" style="edgeStyle=orthogonalEdgeStyle;rounded=0;orthogonalLoop=1;jettySize=auto;html=1;endArrow=none;endFill=0;strokeColor=#FF0000;exitX=0.5;exitY=0;exitDx=0;exitDy=0;strokeWidth=2;entryX=0.158;entryY=0;entryDx=0;entryDy=0;entryPerimeter=0;" parent="1" source="3oBcGqyqrbjpWQ7rkoVl-110" target="3oBcGqyqrbjpWQ7rkoVl-17" edge="1">
          <mxGeometry relative="1" as="geometry">
            <mxPoint x="40" y="260" as="sourcePoint" />
            <Array as="points">
              <mxPoint x="139" y="40" />
            </Array>
          </mxGeometry>
        </mxCell>
        <mxCell id="3oBcGqyqrbjpWQ7rkoVl-145" value="Q" style="text;html=1;resizable=0;points=[];align=center;verticalAlign=middle;labelBackgroundColor=#ffffff;" parent="3oBcGqyqrbjpWQ7rkoVl-140" vertex="1" connectable="0">
          <mxGeometry x="-0.35" y="1" relative="1" as="geometry">
            <mxPoint y="63" as="offset" />
          </mxGeometry>
        </mxCell>
        <mxCell id="3oBcGqyqrbjpWQ7rkoVl-143" style="edgeStyle=orthogonalEdgeStyle;rounded=0;orthogonalLoop=1;jettySize=auto;html=1;exitX=1;exitY=0.5;exitDx=0;exitDy=0;endArrow=none;endFill=0;strokeColor=#FF0000;strokeWidth=2;" parent="1" source="3oBcGqyqrbjpWQ7rkoVl-49" edge="1">
          <mxGeometry relative="1" as="geometry">
            <mxPoint x="200" y="350" as="targetPoint" />
            <Array as="points">
              <mxPoint x="200" y="350" />
              <mxPoint x="200" y="350" />
            </Array>
          </mxGeometry>
        </mxCell>
        <mxCell id="3oBcGqyqrbjpWQ7rkoVl-147" style="edgeStyle=orthogonalEdgeStyle;rounded=0;orthogonalLoop=1;jettySize=auto;html=1;exitX=0;exitY=0.5;exitDx=0;exitDy=0;entryX=0.5;entryY=1;entryDx=0;entryDy=0;endArrow=none;endFill=0;strokeColor=#FF0000;strokeWidth=2;" parent="1" source="3oBcGqyqrbjpWQ7rkoVl-182" target="3oBcGqyqrbjpWQ7rkoVl-111" edge="1">
          <mxGeometry relative="1" as="geometry" />
        </mxCell>
        <mxCell id="3oBcGqyqrbjpWQ7rkoVl-184" value="N" style="text;html=1;resizable=0;points=[];align=center;verticalAlign=middle;labelBackgroundColor=#ffffff;" parent="3oBcGqyqrbjpWQ7rkoVl-147" vertex="1" connectable="0">
          <mxGeometry x="-0.5579" y="-4" relative="1" as="geometry">
            <mxPoint as="offset" />
          </mxGeometry>
        </mxCell>
        <mxCell id="3oBcGqyqrbjpWQ7rkoVl-152" style="edgeStyle=orthogonalEdgeStyle;rounded=0;orthogonalLoop=1;jettySize=auto;html=1;exitX=0;exitY=0.25;exitDx=0;exitDy=0;endArrow=none;endFill=0;strokeColor=#000000;strokeWidth=2;" parent="1" source="3oBcGqyqrbjpWQ7rkoVl-146" target="3oBcGqyqrbjpWQ7rkoVl-2" edge="1">
          <mxGeometry relative="1" as="geometry">
            <mxPoint x="590" y="710" as="targetPoint" />
            <Array as="points">
              <mxPoint x="260" y="-130" />
              <mxPoint x="260" y="-230" />
              <mxPoint x="580" y="-230" />
              <mxPoint x="580" y="570" />
            </Array>
          </mxGeometry>
        </mxCell>
        <mxCell id="3oBcGqyqrbjpWQ7rkoVl-162" style="edgeStyle=orthogonalEdgeStyle;rounded=0;orthogonalLoop=1;jettySize=auto;html=1;exitX=1;exitY=0.25;exitDx=0;exitDy=0;endArrow=none;endFill=0;strokeColor=#000000;strokeWidth=2;entryX=0.25;entryY=1;entryDx=0;entryDy=0;" parent="1" source="3oBcGqyqrbjpWQ7rkoVl-146" target="3oBcGqyqrbjpWQ7rkoVl-163" edge="1">
          <mxGeometry relative="1" as="geometry">
            <mxPoint x="380" y="-270" as="targetPoint" />
            <Array as="points">
              <mxPoint x="378" y="-130" />
            </Array>
          </mxGeometry>
        </mxCell>
        <mxCell id="3oBcGqyqrbjpWQ7rkoVl-146" value="SAMLEX&lt;br&gt;SHORE&lt;br&gt;CHARGER&lt;br&gt;40A" style="whiteSpace=wrap;html=1;aspect=fixed;strokeColor=#666666;fillColor=#f5f5f5;strokeWidth=3;fontColor=#333333;rounded=1;" parent="1" vertex="1">
          <mxGeometry x="280" y="-150" width="80" height="80" as="geometry" />
        </mxCell>
        <mxCell id="3oBcGqyqrbjpWQ7rkoVl-151" style="edgeStyle=orthogonalEdgeStyle;rounded=0;orthogonalLoop=1;jettySize=auto;html=1;exitX=1;exitY=0.5;exitDx=0;exitDy=0;entryX=0;entryY=0.75;entryDx=0;entryDy=0;endArrow=none;endFill=0;strokeColor=#FF0000;strokeWidth=2;" parent="1" source="3oBcGqyqrbjpWQ7rkoVl-179" target="3oBcGqyqrbjpWQ7rkoVl-78" edge="1">
          <mxGeometry relative="1" as="geometry" />
        </mxCell>
        <mxCell id="3oBcGqyqrbjpWQ7rkoVl-158" style="edgeStyle=orthogonalEdgeStyle;rounded=0;orthogonalLoop=1;jettySize=auto;html=1;exitX=1;exitY=0.75;exitDx=0;exitDy=0;endArrow=none;endFill=0;strokeColor=#FF0000;strokeWidth=2;entryX=0.75;entryY=1;entryDx=0;entryDy=0;" parent="1" source="3oBcGqyqrbjpWQ7rkoVl-146" target="3oBcGqyqrbjpWQ7rkoVl-163" edge="1">
          <mxGeometry relative="1" as="geometry">
            <mxPoint x="390" y="-270" as="targetPoint" />
            <mxPoint x="360" y="-150" as="sourcePoint" />
            <Array as="points">
              <mxPoint x="393" y="-90" />
            </Array>
          </mxGeometry>
        </mxCell>
        <mxCell id="3oBcGqyqrbjpWQ7rkoVl-159" value="" style="endArrow=none;html=1;strokeColor=#000000;strokeWidth=3;" parent="1" edge="1">
          <mxGeometry width="50" height="50" relative="1" as="geometry">
            <mxPoint x="439.5" y="285" as="sourcePoint" />
            <mxPoint x="439.5" y="255" as="targetPoint" />
          </mxGeometry>
        </mxCell>
        <mxCell id="3oBcGqyqrbjpWQ7rkoVl-108" value="" style="group;rotation=-180;" parent="1" vertex="1" connectable="0">
          <mxGeometry x="110" y="30" width="60" height="50" as="geometry" />
        </mxCell>
        <mxCell id="3oBcGqyqrbjpWQ7rkoVl-109" value="" style="group;rotation=-180;" parent="3oBcGqyqrbjpWQ7rkoVl-108" vertex="1" connectable="0">
          <mxGeometry width="60" height="50" as="geometry" />
        </mxCell>
        <mxCell id="3oBcGqyqrbjpWQ7rkoVl-110" value="" style="ellipse;whiteSpace=wrap;html=1;rotation=-180;" parent="3oBcGqyqrbjpWQ7rkoVl-109" vertex="1">
          <mxGeometry x="20" y="30" width="20" height="20" as="geometry" />
        </mxCell>
        <mxCell id="3oBcGqyqrbjpWQ7rkoVl-111" value="" style="ellipse;whiteSpace=wrap;html=1;rotation=-180;" parent="3oBcGqyqrbjpWQ7rkoVl-109" vertex="1">
          <mxGeometry width="20" height="20" as="geometry" />
        </mxCell>
        <mxCell id="3oBcGqyqrbjpWQ7rkoVl-112" value="" style="ellipse;whiteSpace=wrap;html=1;rotation=-180;" parent="3oBcGqyqrbjpWQ7rkoVl-109" vertex="1">
          <mxGeometry x="40" width="20" height="20" as="geometry" />
        </mxCell>
        <mxCell id="3oBcGqyqrbjpWQ7rkoVl-160" value="" style="endArrow=none;html=1;strokeColor=#000000;strokeWidth=3;" parent="1" edge="1">
          <mxGeometry width="50" height="50" relative="1" as="geometry">
            <mxPoint x="139.5" y="65" as="sourcePoint" />
            <mxPoint x="139.5" y="35" as="targetPoint" />
          </mxGeometry>
        </mxCell>
        <mxCell id="3oBcGqyqrbjpWQ7rkoVl-163" value="&lt;font color=&quot;#fcfcfc&quot;&gt;20A&lt;/font&gt;" style="rounded=0;whiteSpace=wrap;html=1;strokeWidth=3;fillColor=#3333FF;strokeColor=#3333FF;" parent="1" vertex="1">
          <mxGeometry x="370" y="-200" width="30" height="20" as="geometry" />
        </mxCell>
        <mxCell id="3oBcGqyqrbjpWQ7rkoVl-164" value="" style="endArrow=none;html=1;strokeColor=#3333FF;strokeWidth=3;" parent="1" edge="1">
          <mxGeometry width="50" height="50" relative="1" as="geometry">
            <mxPoint x="379.5" y="-200" as="sourcePoint" />
            <mxPoint x="379.5" y="-210" as="targetPoint" />
          </mxGeometry>
        </mxCell>
        <mxCell id="3oBcGqyqrbjpWQ7rkoVl-165" value="" style="endArrow=none;html=1;strokeColor=#3333FF;strokeWidth=3;" parent="1" edge="1">
          <mxGeometry width="50" height="50" relative="1" as="geometry">
            <mxPoint x="390" y="-200" as="sourcePoint" />
            <mxPoint x="390" y="-210" as="targetPoint" />
          </mxGeometry>
        </mxCell>
        <mxCell id="3oBcGqyqrbjpWQ7rkoVl-23" value="AGM&lt;br&gt;STARTER" style="rounded=0;whiteSpace=wrap;html=1;rotation=0;strokeWidth=3;strokeColor=#3333FF;" parent="1" vertex="1">
          <mxGeometry x="430" y="420" width="120" height="80" as="geometry" />
        </mxCell>
        <mxCell id="3oBcGqyqrbjpWQ7rkoVl-24" value="+" style="whiteSpace=wrap;html=1;aspect=fixed;rotation=0;strokeWidth=3;strokeColor=#3333FF;" parent="1" vertex="1">
          <mxGeometry x="430" y="400" width="20" height="20" as="geometry" />
        </mxCell>
        <mxCell id="3oBcGqyqrbjpWQ7rkoVl-25" value="–" style="whiteSpace=wrap;html=1;aspect=fixed;rotation=0;strokeWidth=3;strokeColor=#3333FF;" parent="1" vertex="1">
          <mxGeometry x="530" y="400" width="20" height="20" as="geometry" />
        </mxCell>
        <mxCell id="3oBcGqyqrbjpWQ7rkoVl-168" value="" style="group;rotation=-180;" parent="1" vertex="1" connectable="0">
          <mxGeometry x="480" y="-20" width="60" height="50" as="geometry" />
        </mxCell>
        <mxCell id="3oBcGqyqrbjpWQ7rkoVl-169" value="" style="group;rotation=-180;" parent="3oBcGqyqrbjpWQ7rkoVl-168" vertex="1" connectable="0">
          <mxGeometry width="60" height="50" as="geometry" />
        </mxCell>
        <mxCell id="3oBcGqyqrbjpWQ7rkoVl-170" value="" style="ellipse;whiteSpace=wrap;html=1;rotation=-180;" parent="3oBcGqyqrbjpWQ7rkoVl-169" vertex="1">
          <mxGeometry x="20" y="30" width="20" height="20" as="geometry" />
        </mxCell>
        <mxCell id="3oBcGqyqrbjpWQ7rkoVl-171" value="" style="ellipse;whiteSpace=wrap;html=1;rotation=-180;" parent="3oBcGqyqrbjpWQ7rkoVl-169" vertex="1">
          <mxGeometry width="20" height="20" as="geometry" />
        </mxCell>
        <mxCell id="3oBcGqyqrbjpWQ7rkoVl-173" value="" style="endArrow=none;html=1;strokeColor=#000000;strokeWidth=3;" parent="1" edge="1">
          <mxGeometry width="50" height="50" relative="1" as="geometry">
            <mxPoint x="509.5" y="15" as="sourcePoint" />
            <mxPoint x="509.5" y="-15" as="targetPoint" />
          </mxGeometry>
        </mxCell>
        <mxCell id="3oBcGqyqrbjpWQ7rkoVl-17" value="+ Positive Bus" style="rounded=0;whiteSpace=wrap;html=1;strokeWidth=3;" parent="1" vertex="1">
          <mxGeometry x="120" y="240" width="120" height="40" as="geometry" />
        </mxCell>
        <mxCell id="3oBcGqyqrbjpWQ7rkoVl-2" value="– Negative Bus" style="rounded=0;whiteSpace=wrap;html=1;strokeColor=#000000;strokeWidth=3;" parent="1" vertex="1">
          <mxGeometry x="410" y="535" width="110" height="65" as="geometry" />
        </mxCell>
        <mxCell id="3oBcGqyqrbjpWQ7rkoVl-48" value="AGM&lt;br&gt;200AH" style="rounded=0;whiteSpace=wrap;html=1;rotation=90;strokeWidth=3;strokeColor=#3333FF;" parent="1" vertex="1">
          <mxGeometry x="55" y="360" width="120" height="80" as="geometry" />
        </mxCell>
        <mxCell id="3oBcGqyqrbjpWQ7rkoVl-49" value="+" style="whiteSpace=wrap;html=1;aspect=fixed;rotation=0;strokeWidth=3;strokeColor=#3333FF;" parent="1" vertex="1">
          <mxGeometry x="155" y="340" width="20" height="20" as="geometry" />
        </mxCell>
        <mxCell id="3oBcGqyqrbjpWQ7rkoVl-50" value="–" style="whiteSpace=wrap;html=1;aspect=fixed;rotation=0;strokeWidth=3;strokeColor=#3333FF;" parent="1" vertex="1">
          <mxGeometry x="155" y="440" width="20" height="20" as="geometry" />
        </mxCell>
        <mxCell id="3oBcGqyqrbjpWQ7rkoVl-59" value="AGM&lt;br&gt;200AH" style="rounded=0;whiteSpace=wrap;html=1;rotation=90;strokeWidth=3;strokeColor=#3333FF;" parent="1" vertex="1">
          <mxGeometry x="55" y="490" width="120" height="80" as="geometry" />
        </mxCell>
        <mxCell id="3oBcGqyqrbjpWQ7rkoVl-60" value="+" style="whiteSpace=wrap;html=1;aspect=fixed;rotation=0;strokeColor=#3333FF;strokeWidth=3;" parent="1" vertex="1">
          <mxGeometry x="155" y="470" width="20" height="20" as="geometry" />
        </mxCell>
        <mxCell id="3oBcGqyqrbjpWQ7rkoVl-61" value="–" style="whiteSpace=wrap;html=1;aspect=fixed;rotation=0;strokeWidth=3;strokeColor=#3333FF;" parent="1" vertex="1">
          <mxGeometry x="155" y="570" width="20" height="20" as="geometry" />
        </mxCell>
        <mxCell id="3oBcGqyqrbjpWQ7rkoVl-178" value="" style="shape=link;html=1;endArrow=none;endFill=0;strokeColor=#0D0D0D;strokeWidth=1;entryX=0;entryY=0.25;entryDx=0;entryDy=0;exitX=1;exitY=0.25;exitDx=0;exitDy=0;" parent="1" source="3oBcGqyqrbjpWQ7rkoVl-122" target="3oBcGqyqrbjpWQ7rkoVl-123" edge="1">
          <mxGeometry width="50" height="50" relative="1" as="geometry">
            <mxPoint x="70" y="760" as="sourcePoint" />
            <mxPoint x="120" y="710" as="targetPoint" />
          </mxGeometry>
        </mxCell>
        <mxCell id="3oBcGqyqrbjpWQ7rkoVl-179" value="50&lt;br&gt;A" style="whiteSpace=wrap;html=1;aspect=fixed;" parent="1" vertex="1">
          <mxGeometry x="190" y="-20" width="40" height="40" as="geometry" />
        </mxCell>
        <mxCell id="3oBcGqyqrbjpWQ7rkoVl-180" style="edgeStyle=orthogonalEdgeStyle;rounded=0;orthogonalLoop=1;jettySize=auto;html=1;exitX=0.5;exitY=1;exitDx=0;exitDy=0;entryX=0;entryY=0.5;entryDx=0;entryDy=0;endArrow=none;endFill=0;strokeColor=#FF0000;strokeWidth=2;" parent="1" source="3oBcGqyqrbjpWQ7rkoVl-112" target="3oBcGqyqrbjpWQ7rkoVl-179" edge="1">
          <mxGeometry relative="1" as="geometry">
            <mxPoint x="160" y="-10" as="sourcePoint" />
            <mxPoint x="280" y="-40" as="targetPoint" />
          </mxGeometry>
        </mxCell>
        <mxCell id="3oBcGqyqrbjpWQ7rkoVl-185" value="P&lt;br&gt;" style="text;html=1;resizable=0;points=[];align=center;verticalAlign=middle;labelBackgroundColor=#ffffff;" parent="3oBcGqyqrbjpWQ7rkoVl-180" vertex="1" connectable="0">
          <mxGeometry y="-5" relative="1" as="geometry">
            <mxPoint x="5" y="-6" as="offset" />
          </mxGeometry>
        </mxCell>
        <mxCell id="3oBcGqyqrbjpWQ7rkoVl-182" value="100&lt;br&gt;A" style="whiteSpace=wrap;html=1;aspect=fixed;" parent="1" vertex="1">
          <mxGeometry x="160" y="-110" width="40" height="40" as="geometry" />
        </mxCell>
        <mxCell id="3oBcGqyqrbjpWQ7rkoVl-183" style="edgeStyle=orthogonalEdgeStyle;rounded=0;orthogonalLoop=1;jettySize=auto;html=1;exitX=0;exitY=0.75;exitDx=0;exitDy=0;entryX=1;entryY=0.5;entryDx=0;entryDy=0;endArrow=none;endFill=0;strokeColor=#FF0000;strokeWidth=2;" parent="1" source="3oBcGqyqrbjpWQ7rkoVl-146" target="3oBcGqyqrbjpWQ7rkoVl-182" edge="1">
          <mxGeometry relative="1" as="geometry">
            <mxPoint x="280" y="-130" as="sourcePoint" />
            <mxPoint x="120" y="-10" as="targetPoint" />
          </mxGeometry>
        </mxCell>
        <mxCell id="3oBcGqyqrbjpWQ7rkoVl-194" value="J" style="text;html=1;resizable=0;points=[];align=center;verticalAlign=middle;labelBackgroundColor=#ffffff;fontColor=#4D4D4D;" parent="3oBcGqyqrbjpWQ7rkoVl-183" vertex="1" connectable="0">
          <mxGeometry x="-0.45" relative="1" as="geometry">
            <mxPoint as="offset" />
          </mxGeometry>
        </mxCell>
        <mxCell id="3oBcGqyqrbjpWQ7rkoVl-187" value="" style="endArrow=none;html=1;strokeColor=#000000;strokeWidth=1;exitX=0.175;exitY=0.75;exitDx=0;exitDy=0;exitPerimeter=0;" parent="1" source="3oBcGqyqrbjpWQ7rkoVl-79" edge="1">
          <mxGeometry width="50" height="50" relative="1" as="geometry">
            <mxPoint x="395" y="200" as="sourcePoint" />
            <mxPoint x="281" y="50" as="targetPoint" />
          </mxGeometry>
        </mxCell>
        <mxCell id="3oBcGqyqrbjpWQ7rkoVl-188" value="" style="endArrow=none;html=1;strokeColor=#000000;strokeWidth=1;exitX=0.175;exitY=0.75;exitDx=0;exitDy=0;exitPerimeter=0;" parent="1" edge="1">
          <mxGeometry width="50" height="50" relative="1" as="geometry">
            <mxPoint x="359" y="90" as="sourcePoint" />
            <mxPoint x="359" y="50" as="targetPoint" />
          </mxGeometry>
        </mxCell>
        <mxCell id="3oBcGqyqrbjpWQ7rkoVl-189" value="INPUT" style="text;html=1;resizable=0;points=[];autosize=1;align=center;verticalAlign=top;spacingTop=-4;rotation=-90;fontColor=#4D4D4D;" parent="1" vertex="1">
          <mxGeometry x="345" y="60" width="50" height="20" as="geometry" />
        </mxCell>
        <mxCell id="3oBcGqyqrbjpWQ7rkoVl-190" value="OUTPUT" style="text;html=1;resizable=0;points=[];autosize=1;align=center;verticalAlign=top;spacingTop=-4;rotation=-90;fontColor=#4D4D4D;" parent="1" vertex="1">
          <mxGeometry x="240" y="60" width="60" height="20" as="geometry" />
        </mxCell>
        <mxCell id="3oBcGqyqrbjpWQ7rkoVl-199" value="GND&lt;br&gt;" style="pointerEvents=1;verticalLabelPosition=bottom;shadow=0;dashed=0;align=center;fillColor=#ffffff;html=1;verticalAlign=top;strokeWidth=1;shape=mxgraph.electrical.signal_sources.signal_ground;rounded=1;fontColor=#4D4D4D;" parent="1" vertex="1">
          <mxGeometry x="517.5" y="345" width="45" height="30" as="geometry" />
        </mxCell>
      </root>
    </mxGraphModel>
  </diagram>
</mxfile>
